<?xml version="1.0" encoding="UTF-8"?>
<!DOCTYPE svg PUBLIC "-//W3C//DTD SVG 1.1//EN" "http://www.w3.org/Graphics/SVG/1.1/DTD/svg11.dtd">
<svg xmlns="http://www.w3.org/2000/svg" version="1.1" width="771px" height="763px" style="shape-rendering:geometricPrecision; text-rendering:geometricPrecision; image-rendering:optimizeQuality; fill-rule:evenodd; clip-rule:evenodd" xmlns:xlink="http://www.w3.org/1999/xlink">
<g><path style="opacity:1" fill="#fefefe" d="M -0.5,-0.5 C 256.5,-0.5 513.5,-0.5 770.5,-0.5C 770.5,253.833 770.5,508.167 770.5,762.5C 513.5,762.5 256.5,762.5 -0.5,762.5C -0.5,508.167 -0.5,253.833 -0.5,-0.5 Z"/></g>
<g><path style="opacity:1" fill="#0c0c0c" d="M 423.5,37.5 C 436.73,36.6011 449.73,37.7678 462.5,41C 481.047,42.4772 499.38,41.3105 517.5,37.5C 518.5,37.8333 519.167,38.5 519.5,39.5C 515.446,43.2754 513.279,47.942 513,53.5C 512.333,72.5 512.333,91.5 513,110.5C 514.676,123.554 516.676,136.554 519,149.5C 520.464,179.834 518.964,210.001 514.5,240C 516.948,250.359 518.781,260.859 520,271.5C 520.86,282.236 520.36,292.903 518.5,303.5C 519.206,317.728 520.54,331.895 522.5,346C 521.43,351.783 520.763,357.616 520.5,363.5C 521.223,370.164 521.389,376.83 521,383.5C 520.527,385.779 519.527,387.779 518,389.5C 514.344,374.415 513.844,359.248 516.5,344C 515.143,330.694 514.143,317.361 513.5,304C 514.441,290.173 514.607,276.34 514,262.5C 511.752,255.76 509.919,248.927 508.5,242C 514.08,209.732 515.913,177.232 514,144.5C 511.573,132.938 509.906,121.272 509,109.5C 508.333,90.8333 508.333,72.1667 509,53.5C 509.995,49.8549 510.828,46.1883 511.5,42.5C 491.48,46.6247 471.48,46.458 451.5,42C 435.129,41.2216 418.796,41.7216 402.5,43.5C 398.5,43.1667 394.5,42.8333 390.5,42.5C 373.982,44.253 357.649,47.0863 341.5,51C 322.422,52.1306 303.422,53.9639 284.5,56.5C 271.837,55.9049 259.171,55.4049 246.5,55C 243.691,53.2589 240.691,52.0922 237.5,51.5C 238.826,64.1212 239.493,76.7878 239.5,89.5C 238.963,107.005 238.296,124.505 237.5,142C 238.569,161.86 240.069,181.694 242,201.5C 243.462,231.997 243.629,262.497 242.5,293C 243.358,317.846 244.358,342.68 245.5,367.5C 268.837,364.704 291.837,360.204 314.5,354C 349.5,353.333 384.5,353.333 419.5,354C 426.477,355.441 433.477,356.774 440.5,358C 461.204,359.172 481.871,360.672 502.5,362.5C 502.67,363.822 502.337,364.989 501.5,366C 496.206,366.905 490.872,367.405 485.5,367.5C 471.274,365.25 456.94,364.084 442.5,364C 435.167,362.667 427.833,361.333 420.5,360C 386.839,358.927 353.172,358.094 319.5,357.5C 309.081,359.187 298.748,361.354 288.5,364C 274.181,366.054 259.848,367.887 245.5,369.5C 245.793,378.512 245.96,387.512 246,396.5C 244.286,397.925 242.953,397.592 242,395.5C 239.312,350.524 238.146,305.524 238.5,260.5C 238.332,222.597 236.665,184.764 233.5,147C 235.678,114.85 236.345,82.6834 235.5,50.5C 230.4,50.5343 230.234,49.8677 235,48.5C 238.634,49.267 242.134,50.4336 245.5,52C 259.039,52.2482 272.539,53.0815 286,54.5C 304.684,51.1218 323.518,48.9552 342.5,48C 358.767,43.8166 375.267,40.9832 392,39.5C 402.73,40.6171 413.23,39.9505 423.5,37.5 Z"/></g>
<g><path style="opacity:1" fill="#161616" d="M 384.5,70.5 C 387.978,70.1842 391.312,70.6842 394.5,72C 397.588,77.1762 401.588,81.5095 406.5,85C 414.16,84.8472 421.827,84.8472 429.5,85C 432.824,86.9568 435.491,89.6235 437.5,93C 441.696,93.6191 445.696,92.9525 449.5,91C 454.167,90.3333 458.833,90.3333 463.5,91C 454.606,93.3165 445.606,94.6498 436.5,95C 434.419,91.2503 431.419,88.5836 427.5,87C 419.84,87.1528 412.173,87.1528 404.5,87C 399.856,82.6864 395.522,78.0197 391.5,73C 387.091,72.1954 383.091,73.1954 379.5,76C 374.135,80.6837 368.135,84.3504 361.5,87C 358.833,87.6667 356.167,87.6667 353.5,87C 349.5,84.3333 346.167,81 343.5,77C 339.29,75.9801 335.623,76.9801 332.5,80C 327.789,84.3799 322.789,88.3799 317.5,92C 315.833,92.6667 314.167,92.6667 312.5,92C 308.48,88.3191 303.813,86.9858 298.5,88C 292.655,90.5106 287.322,93.8439 282.5,98C 280.956,99.1871 279.289,99.5205 277.5,99C 284.099,93.3965 291.432,89.0632 299.5,86C 304.519,85.1176 308.853,86.451 312.5,90C 313.833,90.6667 315.167,90.6667 316.5,90C 323.479,84.1774 330.812,78.844 338.5,74C 340.635,73.3653 342.635,73.6986 344.5,75C 347.206,77.3706 349.539,80.0372 351.5,83C 353.209,84.5446 355.209,85.3779 357.5,85.5C 361.374,84.5651 365.04,83.0651 368.5,81C 373.489,76.82 378.822,73.32 384.5,70.5 Z"/></g>
<g><path style="opacity:1" fill="#191919" d="M 410.5,108.5 C 413.522,108.804 416.522,109.304 419.5,110C 422.833,112.667 426.167,115.333 429.5,118C 435.776,119.768 442.109,119.768 448.5,118C 456.438,115.52 464.105,112.353 471.5,108.5C 472.696,108.846 472.696,109.346 471.5,110C 459.168,117.669 445.835,121.669 431.5,122C 426.882,119.05 422.548,115.716 418.5,112C 410.119,110.348 402.453,112.015 395.5,117C 387.339,123.414 378.339,128.247 368.5,131.5C 365.972,131.237 363.639,130.404 361.5,129C 358.5,125.333 355.5,121.667 352.5,118C 349.072,117.299 345.738,117.632 342.5,119C 337.007,123.496 330.84,126.663 324,128.5C 322.033,128.458 320.199,127.958 318.5,127C 315.462,124.297 312.795,121.297 310.5,118C 307.072,117.299 303.738,117.632 300.5,119C 294.053,123.113 287.886,127.613 282,132.5C 281.493,133.996 281.993,135.163 283.5,136C 281.397,136.251 280.063,135.251 279.5,133C 287.33,124.69 296.663,118.523 307.5,114.5C 309.266,115.091 310.933,115.924 312.5,117C 315.199,121.714 319.033,124.88 324,126.5C 326.732,126.385 329.232,125.552 331.5,124C 335.666,121.083 339.999,118.416 344.5,116C 347.5,115.333 350.5,115.333 353.5,116C 356.647,119.981 359.98,123.814 363.5,127.5C 365.059,128.447 366.726,129.113 368.5,129.5C 377.272,126.283 385.272,121.783 392.5,116C 398.287,112.595 404.287,110.095 410.5,108.5 Z"/></g>
<g><path style="opacity:1" fill="#2b2b2b" d="M 304.5,129.5 C 305.458,128.038 306.624,126.705 308,125.5C 308.617,126.449 308.451,127.282 307.5,128C 308.308,128.308 308.975,128.808 309.5,129.5C 307.997,130.052 306.331,130.052 304.5,129.5 Z"/></g>
<g><path style="opacity:1" fill="#737373" d="M 304.5,129.5 C 303.746,131.446 302.412,132.279 300.5,132C 301.471,130.519 302.804,129.685 304.5,129.5 Z"/></g>
<g><path style="opacity:1" fill="#191919" d="M 476.5,163.5 C 478.337,163.639 478.67,164.306 477.5,165.5C 469.274,170.78 460.607,175.28 451.5,179C 447.572,180.325 443.572,180.658 439.5,180C 433.43,176.209 426.93,173.709 420,172.5C 417.075,172.523 414.241,173.023 411.5,174C 404.652,177.59 397.652,180.923 390.5,184C 380.279,186.149 371.946,183.149 365.5,175C 361.548,174.088 357.881,174.755 354.5,177C 350.5,180.333 346.5,183.667 342.5,187C 338.982,189.855 335.482,190.021 332,187.5C 331.092,183.801 329.592,180.468 327.5,177.5C 316.871,183.668 307.538,191.501 299.5,201C 297.63,202.366 295.63,203.533 293.5,204.5C 291.085,203.081 290.919,201.415 293,199.5C 293.308,200.308 293.808,200.975 294.5,201.5C 301.617,195.885 308.284,189.718 314.5,183C 318.544,179.979 322.877,177.479 327.5,175.5C 329.029,175.529 330.196,176.196 331,177.5C 331.258,186.295 335.092,188.462 342.5,184C 347.896,178.309 354.229,174.142 361.5,171.5C 366.97,172.449 371.304,175.282 374.5,180C 379.989,182.973 385.656,183.306 391.5,181C 400.787,175.185 410.787,171.352 421.5,169.5C 427.823,171.16 433.823,173.66 439.5,177C 442.833,177.667 446.167,177.667 449.5,177C 459.119,173.524 468.119,169.024 476.5,163.5 Z"/></g>
<g><path style="opacity:1" fill="#171717" d="M 377.5,230.5 C 380.518,230.335 383.518,230.502 386.5,231C 391.166,236 396.832,238.833 403.5,239.5C 410.606,238.786 417.272,236.619 423.5,233C 426.768,231.787 430.101,231.454 433.5,232C 438.126,234.958 442.126,238.624 445.5,243C 449.566,245.958 453.899,246.292 458.5,244C 463.267,241.562 467.767,238.729 472,235.5C 466.809,244.185 458.976,248.351 448.5,248C 447.167,247.333 445.833,246.667 444.5,246C 441.272,241.86 437.605,238.194 433.5,235C 431.167,234.333 428.833,234.333 426.5,235C 419.19,238.659 411.523,241.159 403.5,242.5C 396.144,241.489 389.811,238.322 384.5,233C 380.091,232.195 376.091,233.195 372.5,236C 367.772,239.726 362.772,243.059 357.5,246C 353.705,246.837 350.039,246.504 346.5,245C 343.084,240.913 339.084,237.58 334.5,235C 329.928,234.113 325.595,234.78 321.5,237C 316.211,240.62 311.211,244.62 306.5,249C 300.346,254.052 293.346,256.052 285.5,255C 285.043,254.586 284.709,254.086 284.5,253.5C 290.092,254.173 295.425,253.006 300.5,250C 308.616,243.22 317.282,237.22 326.5,232C 332.204,230.685 337.204,232.018 341.5,236C 344.531,240.046 348.364,242.88 353,244.5C 355.321,244.091 357.487,243.257 359.5,242C 365.089,237.381 371.089,233.548 377.5,230.5 Z"/></g>
<g><path style="opacity:1" fill="#151515" d="M 462.5,276.5 C 463.239,276.369 463.906,276.536 464.5,277C 454.283,290.112 440.95,296.112 424.5,295C 416.717,291.942 409.05,288.608 401.5,285C 396.761,284.274 392.095,284.607 387.5,286C 380.9,289.605 374.566,293.605 368.5,298C 364.809,300.347 360.809,301.847 356.5,302.5C 354.088,302.594 352.255,301.594 351,299.5C 349.129,294.919 346.629,290.752 343.5,287C 340.827,285.296 337.993,284.129 335,283.5C 330.985,284.06 327.152,285.227 323.5,287C 315.833,292.667 308.167,298.333 300.5,304C 299.365,304.749 298.365,304.583 297.5,303.5C 302.976,299.586 308.309,295.419 313.5,291C 318.542,287.479 323.875,284.479 329.5,282C 337.124,280.064 343.291,282.23 348,288.5C 349.667,291.833 351.333,295.167 353,298.5C 354.194,299.43 355.527,300.097 357,300.5C 367.565,294.801 378.065,288.967 388.5,283C 393.167,282.333 397.833,282.333 402.5,283C 409.606,286.553 416.939,289.553 424.5,292C 429.5,292.667 434.5,292.667 439.5,292C 448.235,288.308 455.902,283.141 462.5,276.5 Z"/></g>
<g><path style="opacity:1" fill="#101010" d="M 248.5,420.5 C 249.117,420.611 249.617,420.944 250,421.5C 250.667,430.167 250.667,438.833 250,447.5C 248.189,449.543 246.022,451.043 243.5,452C 246.583,453.139 249.583,454.472 252.5,456C 253.081,456.893 253.415,457.893 253.5,459C 251.611,463.231 249.278,467.231 246.5,471C 249.858,473.108 253.525,474.774 257.5,476C 258.059,476.725 258.392,477.558 258.5,478.5C 256.434,485.198 254.267,491.864 252,498.5C 251.667,509.167 251.333,519.833 251,530.5C 249.178,521.557 247.678,512.557 246.5,503.5C 248.016,495.131 250.683,487.131 254.5,479.5C 251.209,478.003 247.876,476.503 244.5,475C 243.427,473.687 242.76,472.187 242.5,470.5C 244.537,466.27 247.204,462.437 250.5,459C 246.833,457.333 243.167,455.667 239.5,454C 238.14,452.062 238.473,450.396 240.5,449C 242.167,448.167 243.833,447.333 245.5,446.5C 247.027,437.894 248.027,429.228 248.5,420.5 Z"/></g>
<g><path style="opacity:1" fill="#0a0a0a" d="M 523.5,421.5 C 526.518,422.353 528.351,424.353 529,427.5C 528.847,435.16 528.847,442.827 529,450.5C 530.938,453.444 532.438,456.611 533.5,460C 531.882,464.284 528.882,467.284 524.5,469C 526.286,469.785 527.786,470.951 529,472.5C 530.27,492.154 530.603,511.821 530,531.5C 526.981,512.627 524.981,493.627 524,474.5C 521.295,473.245 519.462,471.245 518.5,468.5C 518.529,466.971 519.196,465.804 520.5,465C 523.938,464.08 526.938,462.413 529.5,460C 528,457.833 526.5,455.667 525,453.5C 524.417,446.155 524.584,438.822 525.5,431.5C 525.599,427.976 524.933,424.643 523.5,421.5 Z"/></g>
<g><path style="opacity:1" fill="#252525" d="M 477.5,542.5 C 478.043,542.56 478.376,542.893 478.5,543.5C 475.65,545.427 472.983,547.594 470.5,550C 469.365,550.749 468.365,550.583 467.5,549.5C 470.547,546.653 473.88,544.32 477.5,542.5 Z"/></g>
<g><path style="opacity:1" fill="#1f1f1f" d="M 304.5,544.5 C 306.167,544.5 307.833,544.5 309.5,544.5C 309.241,548.068 307.241,549.401 303.5,548.5C 303.433,547.041 303.766,545.708 304.5,544.5 Z"/></g>
<g><path style="opacity:1" fill="#0a0a0a" d="M 528.5,545.5 C 529.5,545.5 530.5,545.5 531.5,545.5C 532.596,560.201 534.096,574.868 536,589.5C 537.586,587.33 538.92,584.996 540,582.5C 540.654,581.304 541.154,581.304 541.5,582.5C 539.902,586.126 538.402,589.793 537,593.5C 536.261,594.574 535.261,595.241 534,595.5C 532.115,594.008 531.115,592.008 531,589.5C 530.083,574.834 529.25,560.167 528.5,545.5 Z"/></g>
<g><path style="opacity:1" fill="#0f0f0f" d="M 428.5,562.5 C 431.465,556.687 436.132,554.687 442.5,556.5C 443.192,557.025 443.692,557.692 444,558.5C 444.733,564.826 445.399,571.16 446,577.5C 447.599,583.814 450.599,584.814 455,580.5C 455.458,585.375 453.292,587.542 448.5,587C 446.667,585.833 445.167,584.333 444,582.5C 442.601,574.334 441.435,566.167 440.5,558C 435.628,557.234 431.628,558.734 428.5,562.5 Z"/></g>
<g><path style="opacity:1" fill="#0f0f0f" d="M 556.5,556.5 C 557.5,556.5 558.5,556.5 559.5,556.5C 559.649,557.552 559.483,558.552 559,559.5C 554.632,563.533 550.632,567.866 547,572.5C 546.333,574.167 546.333,575.833 547,577.5C 555.051,585.942 564.885,590.776 576.5,592C 574.152,593.84 571.485,595.007 568.5,595.5C 558.237,592.454 549.737,586.787 543,578.5C 542.333,576.167 542.333,573.833 543,571.5C 547.337,566.331 551.837,561.331 556.5,556.5 Z"/></g>
<g><path style="opacity:1" fill="#131313" d="M 428.5,562.5 C 426.928,567.391 425.428,572.391 424,577.5C 423.578,580.236 423.578,582.902 424,585.5C 420.997,588.837 417.331,591.17 413,592.5C 410.085,591.917 408.085,590.25 407,587.5C 406.072,582.799 405.072,578.132 404,573.5C 401.941,581.45 398.441,588.617 393.5,595C 388.471,597.545 384.138,596.712 380.5,592.5C 373.607,598.155 367.107,597.822 361,591.5C 355.206,580.474 354.039,569.141 357.5,557.5C 358.333,564.5 359.167,571.5 360,578.5C 361.072,583.812 363.572,588.312 367.5,592C 370.928,592.701 374.262,592.368 377.5,591C 376.613,579.656 379.78,569.489 387,560.5C 392.497,554.658 396.497,555.658 399,563.5C 399.667,565.833 399.667,568.167 399,570.5C 398.436,566.873 396.936,563.707 394.5,561C 392.097,560.37 390.263,561.203 389,563.5C 386.139,567.888 383.806,572.554 382,577.5C 381.176,580.882 381.343,584.216 382.5,587.5C 384.702,585.732 387.035,584.565 389.5,584C 387.759,585.62 385.925,587.12 384,588.5C 383.888,591.056 385.221,592.39 388,592.5C 389.812,592.507 391.312,591.84 392.5,590.5C 393.48,589.019 394.647,587.685 396,586.5C 399.478,579.854 402.645,573.187 405.5,566.5C 406.086,566.709 406.586,567.043 407,567.5C 407.905,573.6 409.239,579.6 411,585.5C 412.808,587.396 414.975,587.896 417.5,587C 419.296,577.422 420.129,567.589 420,557.5C 421.868,562.253 422.868,567.253 423,572.5C 424.608,568.944 426.441,565.611 428.5,562.5 Z"/></g>
<g><path style="opacity:1" fill="#121212" d="M 485.5,552.5 C 487.826,558.543 489.66,564.876 491,571.5C 493.05,564.116 497.717,559.45 505,557.5C 506.812,557.493 508.312,558.16 509.5,559.5C 511.323,567.42 512.657,575.42 513.5,583.5C 514.002,584.521 514.668,584.688 515.5,584C 521.931,573.844 523.098,574.677 519,586.5C 514.77,590.778 511.437,590.112 509,584.5C 508.667,577.5 508.333,570.5 508,563.5C 507.882,561.427 506.882,560.093 505,559.5C 501.439,561.055 498.439,563.388 496,566.5C 492.557,574.291 490.057,582.291 488.5,590.5C 488.249,583.544 488.082,576.544 488,569.5C 487.099,563.832 486.266,558.166 485.5,552.5 Z"/></g>
<g><path style="opacity:1" fill="#090909" d="M 304.5,558.5 C 307.977,561.44 310.477,565.107 312,569.5C 317.157,587.91 318.491,606.577 316,625.5C 313.363,635.17 307.196,639.67 297.5,639C 290.557,633.185 287.724,625.685 289,616.5C 290.229,621.529 292.229,626.196 295,630.5C 299.741,636.069 304.074,635.736 308,629.5C 309,627.5 310,625.5 311,623.5C 313.385,603.185 311.718,583.185 306,563.5C 305.535,562.069 304.701,560.903 303.5,560C 304.056,559.617 304.389,559.117 304.5,558.5 Z"/></g>
<g><path style="opacity:1" fill="#171717" d="M 464.5,559.5 C 465.5,559.5 466.5,559.5 467.5,559.5C 466.965,569.98 467.632,580.313 469.5,590.5C 473.056,588.782 475.89,586.116 478,582.5C 478.217,587.236 476.383,591.069 472.5,594C 470.191,594.756 468.191,594.256 466.5,592.5C 465.366,589.93 464.532,587.264 464,584.5C 463.378,576.148 463.545,567.814 464.5,559.5 Z"/></g>
<g><path style="opacity:1" fill="#0f0f0f" d="M 334.5,563.5 C 336.214,570.132 337.38,577.132 338,584.5C 338.795,587.115 340.295,589.115 342.5,590.5C 343.442,590.392 344.275,590.059 345,589.5C 348.527,583.779 351.527,577.779 354,571.5C 353.517,576.966 352.184,582.3 350,587.5C 344.282,597.154 339.282,596.821 335,586.5C 333.224,578.861 333.057,571.194 334.5,563.5 Z"/></g>
<g><path style="opacity:1" fill="#0f0f0f" d="M 192.5,564.5 C 205.846,566.514 219.18,566.681 232.5,565C 233.731,566.183 233.731,567.349 232.5,568.5C 223.259,577.485 214.593,586.985 206.5,597C 214.157,598.17 221.823,598.836 229.5,599C 234.588,595.917 239.088,592.083 243,587.5C 241.399,594.837 237.233,600.337 230.5,604C 227.5,604.667 224.5,604.667 221.5,604C 214.209,601.061 206.876,600.728 199.5,603C 198.978,602.439 198.645,601.772 198.5,601C 205.726,590.434 213.726,580.434 222.5,571C 211.806,570.067 201.139,568.901 190.5,567.5C 191.193,566.482 191.859,565.482 192.5,564.5 Z"/></g>
<g><path style="opacity:1" fill="#131313" d="M 273.5,561.5 C 274.854,571.592 277.187,581.592 280.5,591.5C 282.074,592.631 283.741,592.798 285.5,592C 288.797,589.705 291.797,587.038 294.5,584C 295.167,583.333 295.833,583.333 296.5,584C 293.978,588.034 290.978,591.701 287.5,595C 282.386,597.793 278.553,596.626 276,591.5C 274.832,586.827 273.665,582.161 272.5,577.5C 270.322,584.025 266.989,589.858 262.5,595C 255.855,597.596 251.355,595.429 249,588.5C 246.635,580.998 245.968,573.331 247,565.5C 247.414,565.043 247.914,564.709 248.5,564.5C 248.325,574.132 250.492,583.132 255,591.5C 256.726,592.576 258.559,592.743 260.5,592C 268.543,583.414 272.876,573.247 273.5,561.5 Z"/></g>
<g><path style="opacity:1" fill="#131313" d="M 540.5,637.5 C 541.376,637.369 542.043,637.702 542.5,638.5C 541.024,643.031 540.358,647.698 540.5,652.5C 540.871,661.211 541.704,669.878 543,678.5C 545.326,672.513 548.826,667.346 553.5,663C 554.833,662.333 556.167,662.333 557.5,663C 560.427,671.21 561.26,679.71 560,688.5C 559.586,688.957 559.086,689.291 558.5,689.5C 557.707,681.165 557.04,672.831 556.5,664.5C 555.178,664.33 554.011,664.663 553,665.5C 547.602,671.858 544.435,679.191 543.5,687.5C 542.5,687.5 541.5,687.5 540.5,687.5C 538.895,672.209 538.395,656.876 539,641.5C 539.791,640.255 540.291,638.922 540.5,637.5 Z"/></g>
<g><path style="opacity:1" fill="#0f0f0f" d="M 453.5,645.5 C 455.199,645.34 456.866,645.506 458.5,646C 454.693,647.14 452.193,649.64 451,653.5C 448.763,660.661 447.596,667.994 447.5,675.5C 450.469,674.671 453.469,674.505 456.5,675C 453.895,676.021 451.228,676.855 448.5,677.5C 448.062,694.917 446.896,712.251 445,729.5C 441.773,731.889 439.606,730.889 438.5,726.5C 438.667,726.167 438.833,725.833 439,725.5C 440,726.5 441,727.5 442,728.5C 443.77,711.901 444.603,695.235 444.5,678.5C 440.637,678.41 436.97,678.91 433.5,680C 436.423,676.827 440.089,675.66 444.5,676.5C 443.644,664.903 446.644,654.57 453.5,645.5 Z"/></g>
<g><path style="opacity:1" fill="#121212" d="M 648.5,645.5 C 649.117,645.611 649.617,645.944 650,646.5C 650.3,652.504 650.134,658.504 649.5,664.5C 654.544,664.418 659.544,664.251 664.5,664C 659.742,666.144 654.742,666.977 649.5,666.5C 648.979,671.821 649.979,676.821 652.5,681.5C 656.705,685.446 660.872,685.446 665,681.5C 665.369,678.123 665.369,674.79 665,671.5C 670.703,683.3 667.203,688.466 654.5,687C 649.378,684.946 646.545,681.113 646,675.5C 645.503,672.854 645.336,670.187 645.5,667.5C 636.553,667.23 636.72,666.23 646,664.5C 646.705,658.098 647.539,651.765 648.5,645.5 Z"/></g>
<g><path style="opacity:1" fill="#161616" d="M 630.5,653.5 C 629.198,655.028 627.531,656.028 625.5,656.5C 619.546,658.481 615.213,662.314 612.5,668C 612.645,668.772 612.978,669.439 613.5,670C 618.553,671.848 623.553,673.848 628.5,676C 632.01,677.907 633.176,680.74 632,684.5C 628.466,688.369 624.633,691.869 620.5,695C 617.909,695.301 617.075,694.134 618,691.5C 619.912,689.343 621.579,687.009 623,684.5C 623.423,685.956 624.256,686.456 625.5,686C 629.366,683.245 629.366,680.579 625.5,678C 620.261,676.587 615.261,674.587 610.5,672C 608.016,669.716 607.849,667.216 610,664.5C 613.945,659.555 618.779,655.722 624.5,653C 626.712,652.211 628.712,652.378 630.5,653.5 Z"/></g>
<g><path style="opacity:1" fill="#989898" d="M 630.5,653.5 C 631.404,654.209 631.737,655.209 631.5,656.5C 629.5,656.5 627.5,656.5 625.5,656.5C 627.531,656.028 629.198,655.028 630.5,653.5 Z"/></g>
<g><path style="opacity:1" fill="#151515" d="M 582.5,656.5 C 595.176,657.356 600.009,664.022 597,676.5C 595.753,684.426 591.253,687.593 583.5,686C 576.35,679.126 573.85,671.626 576,663.5C 577.694,660.642 579.861,658.309 582.5,656.5 Z"/></g>
<g><path style="opacity:1" fill="#181818" d="M 498.5,672.5 C 496.585,672.784 494.919,672.451 493.5,671.5C 499.474,670.039 505.474,668.705 511.5,667.5C 511.121,662.465 512.954,658.465 517,655.5C 514.99,658.704 513.823,662.37 513.5,666.5C 516.881,666.54 520.214,666.207 523.5,665.5C 523.35,662.074 524.516,661.741 527,664.5C 527.617,665.449 527.451,666.282 526.5,667C 521.856,668.029 517.19,668.862 512.5,669.5C 512.334,675.176 512.501,680.843 513,686.5C 513.837,688.351 514.671,690.184 515.5,692C 520.77,690.411 524.603,686.911 527,681.5C 527.654,680.304 528.154,680.304 528.5,681.5C 526.921,684.994 525.087,688.327 523,691.5C 517.834,697.373 513.834,696.706 511,689.5C 509.388,683.509 509.221,677.509 510.5,671.5C 506.478,670.764 502.478,671.097 498.5,672.5 Z"/></g>
<g><path style="opacity:1" fill="#111111" d="M 345.5,658.5 C 346.152,659.449 346.486,660.615 346.5,662C 344.911,669.416 344.244,676.916 344.5,684.5C 347.957,684.242 351.29,683.742 354.5,683C 351.562,685.257 348.229,686.424 344.5,686.5C 344.545,690.346 345.378,694.013 347,697.5C 355.469,701.075 359.803,698.075 360,688.5C 362.88,698.963 359.047,703.797 348.5,703C 346,701.833 344.167,700 343,697.5C 341.734,693.605 341.234,689.605 341.5,685.5C 328.167,684.833 328.167,684.167 341.5,683.5C 341.648,674.944 342.982,666.61 345.5,658.5 Z"/></g>
<g><path style="opacity:1" fill="#f8f8f8" d="M 583.5,660.5 C 594.105,660.789 597.605,666.123 594,676.5C 591.339,684.556 587.005,685.556 581,679.5C 579.108,675.825 577.608,671.991 576.5,668C 578.804,665.505 581.137,663.005 583.5,660.5 Z"/></g>
<g><path style="opacity:1" fill="#191919" d="M 174.5,669.5 C 177.32,669.248 179.986,669.748 182.5,671C 183.885,672.965 183.718,674.798 182,676.5C 181.506,674.866 181.34,673.199 181.5,671.5C 176.052,670.975 171.885,672.975 169,677.5C 167.462,682.12 168.962,685.287 173.5,687C 190.951,691.103 191.951,697.436 176.5,706C 172.82,707.027 169.653,706.194 167,703.5C 166.405,699.825 167.238,699.658 169.5,703C 176.906,705.058 181.906,702.558 184.5,695.5C 183.99,693.912 182.99,692.745 181.5,692C 175.75,691.209 170.917,688.709 167,684.5C 165.271,677.29 167.771,672.29 174.5,669.5 Z"/></g>
<g><path style="opacity:1" fill="#1d1d1d" d="M 137.5,670.5 C 143.128,669.928 146.294,672.261 147,677.5C 141.967,672.003 137.3,672.336 133,678.5C 129.714,685.86 129.714,693.193 133,700.5C 135.21,701.749 137.376,701.582 139.5,700C 143.752,696.419 147.252,692.252 150,687.5C 150.212,684.668 150.379,682.002 150.5,679.5C 151.086,679.709 151.586,680.043 152,680.5C 152.278,686.949 153.278,693.282 155,699.5C 155.75,700.126 156.584,700.626 157.5,701C 155.888,701.72 154.388,701.554 153,700.5C 151.848,697.56 150.848,694.56 150,691.5C 146.682,698.849 141.182,703.016 133.5,704C 126.441,695.902 125.607,687.069 131,677.5C 132.694,674.642 134.861,672.309 137.5,670.5 Z"/></g>
<g><path style="opacity:1" fill="#141414" d="M 283.5,672.5 C 285.591,672.318 287.591,672.652 289.5,673.5C 290.583,674.365 290.749,675.365 290,676.5C 288.933,674.717 287.433,674.217 285.5,675C 276.705,680.76 272.872,688.926 274,699.5C 274.347,701.18 275.347,702.18 277,702.5C 285.764,697.63 291.098,690.296 293,680.5C 293.414,680.043 293.914,679.709 294.5,679.5C 295.141,687.203 295.975,694.87 297,702.5C 297.333,702.833 297.667,703.167 298,703.5C 299,700.833 300,698.167 301,695.5C 301.654,694.304 302.154,694.304 302.5,695.5C 301.656,699.201 300.323,702.701 298.5,706C 296.892,706.658 295.725,706.158 295,704.5C 294,699.833 293,695.167 292,690.5C 289.163,697.842 283.996,702.508 276.5,704.5C 274.626,704.61 273.126,703.944 272,702.5C 269.475,689.908 273.309,679.908 283.5,672.5 Z"/></g>
<g><path style="opacity:1" fill="#7d7d7d" d="M 493.5,671.5 C 494.919,672.451 496.585,672.784 498.5,672.5C 496.307,673.797 493.973,673.797 491.5,672.5C 491.957,671.702 492.624,671.369 493.5,671.5 Z"/></g>
<g><path style="opacity:1" fill="#181818" d="M 408.5,672.5 C 421.312,672.844 426.478,679.177 424,691.5C 418.571,698.796 411.404,701.463 402.5,699.5C 396.903,693.443 396.07,686.776 400,679.5C 402.996,677.267 405.829,674.934 408.5,672.5 Z"/></g>
<g><path style="opacity:1" fill="#181818" d="M 307.5,674.5 C 308.458,674.953 309.292,675.619 310,676.5C 310.17,678.715 310.837,680.715 312,682.5C 316.981,677.211 323.148,675.044 330.5,676C 331.224,674.662 331.89,674.495 332.5,675.5C 331.687,676.814 330.687,677.981 329.5,679C 321.635,677.514 316.135,680.348 313,687.5C 312.83,693.196 312.33,698.862 311.5,704.5C 309.869,702.941 309.036,700.941 309,698.5C 308.46,694.649 308.626,690.815 309.5,687C 308.885,682.812 308.219,678.645 307.5,674.5 Z"/></g>
<g><path style="opacity:1" fill="#f6f6f6" d="M 408.5,676.5 C 418.503,676.002 422.67,680.668 421,690.5C 417.518,694.819 413.018,697.152 407.5,697.5C 402.599,696.59 400.266,693.59 400.5,688.5C 403.797,688.671 404.131,688.005 401.5,686.5C 402.025,685.808 402.692,685.308 403.5,685C 402.483,683.951 402.316,682.784 403,681.5C 405.191,680.167 407.024,678.5 408.5,676.5 Z"/></g>
<g><path style="opacity:1" fill="#1c1c1c" d="M 241.5,674.5 C 242.333,685.714 243.5,697.047 245,708.5C 245.97,718.328 245.637,727.994 244,737.5C 242.923,735.884 242.423,734.051 242.5,732C 243.456,715.951 242.789,699.951 240.5,684C 240.744,680.814 241.077,677.647 241.5,674.5 Z"/></g>
<g><path style="opacity:1" fill="#141414" d="M 246.5,679.5 C 252.65,677.478 258.15,678.811 263,683.5C 264.942,693.295 261.108,700.129 251.5,704C 249.866,704.494 248.199,704.66 246.5,704.5C 246.066,701.834 247.066,700.667 249.5,701C 248.304,701.654 248.304,702.154 249.5,702.5C 256.177,699.662 260.51,694.829 262.5,688C 259.408,681.283 254.074,678.45 246.5,679.5 Z"/></g>
</svg>
