<svg xmlns="http://www.w3.org/2000/svg" width="512" height="512" style="shape-rendering:geometricPrecision;text-rendering:geometricPrecision;image-rendering:optimizeQuality;fill-rule:evenodd;clip-rule:evenodd"><path style="opacity:.981" fill="#2c4567" d="M188.5 28.5c4.436-.29 8.77.21 13 1.5l31 17c6.476 4.439 10.31 10.605 11.5 18.5a1307.001 1307.001 0 0 0 4 32 124.65 124.65 0 0 1 8 30c.445-10.446 2.778-20.446 7-30a1307.001 1307.001 0 0 0 4-32c1.124-6.415 3.957-11.915 8.5-16.5a597.572 597.572 0 0 1 37-20c4.94-1.04 9.606-.374 14 2A118.032 118.032 0 0 1 338 45.5a20.43 20.43 0 0 0 6.5-3.5 52.035 52.035 0 0 1 8-9c3.707-.996 7.041-.33 10 2A171.987 171.987 0 0 0 392 59.5c2.888 4.936 4.055 10.27 3.5 16a103.53 103.53 0 0 1-2 19c2.032 7.22 6.699 12.053 14 14.5l13 11c4.919.802 9.752.635 14.5-.5 8.22.947 14.554 4.947 19 12l10 18c3.446 4.048 7.446 7.382 12 10 1.368 3.238 1.701 6.572 1 10a302.871 302.871 0 0 1-6.5 18.5 181.183 181.183 0 0 1 10.5 19.5 110.18 110.18 0 0 1 12 13 46.59 46.59 0 0 1 5 17 138.538 138.538 0 0 1-1 32c-6.454 20.108-20.287 30.941-41.5 32.5-27.592-1.843-54.592 1.157-81 9a428.997 428.997 0 0 0-61 25c-31.116 17.705-47.949 44.538-50.5 80.5a369.196 369.196 0 0 0 1.5 57c-1.345 7.342-5.678 10.175-13 8.5-2.167-.833-3.667-2.333-4.5-4.5.185-19.993.685-39.993 1.5-60 2.648-33.209-10.352-58.043-39-74.5-33.786-19.262-69.786-32.596-108-40l-46-1c-23.13-1.805-37.297-13.971-42.5-36.5a137.649 137.649 0 0 1 2-38c3.047-8.058 8.047-14.725 15-20A181.219 181.219 0 0 1 40.5 188a302.938 302.938 0 0 1-6.5-18.5c-.701-3.428-.368-6.762 1-10 4.554-2.618 8.554-5.952 12-10A107.974 107.974 0 0 1 63.5 124a28.29 28.29 0 0 1 12.5-4.5c4.748 1.135 9.581 1.302 14.5.5a150.158 150.158 0 0 1 23.5-17.5c1.766-2.381 2.932-5.048 3.5-8a101.768 101.768 0 0 1-1.5-28c.848-3.198 2.348-6.031 4.5-8.5l12-8a114.434 114.434 0 0 1 19-17c3.134-.79 6.134-.457 9 1 2.574 5.575 6.741 9.408 12.5 11.5a53.379 53.379 0 0 0 7-10c2.441-2.954 5.275-5.287 8.5-7z"/><path style="opacity:1" fill="#c1da30" d="M251.5 267.5c0 .667-.333 1-1 1-13.984-76.453-37.318-149.953-70-220.5 6.199-15.569 15.699-17.735 28.5-6.5a2286.65 2286.65 0 0 1 42.5 226z"/><path style="opacity:1" fill="#97dc48" d="M266.5 242.5c-.838-.342-1.172-1.008-1-2a2444.028 2444.028 0 0 1 40.5-201c6.171-5.915 12.505-6.248 19-1a64.735 64.735 0 0 1 6 9c1.301 1.865 1.635 3.865 1 6-29.505 60.348-51.338 123.348-65.5 189z"/><path style="opacity:1" fill="#99de47" d="M154.5 38.5c5.496 7.758 12.829 13.092 22 16 34.918 74.252 58.418 151.919 70.5 233a820.231 820.231 0 0 0-43-103 1942.926 1942.926 0 0 0-69.5-127c6.687-6.355 13.354-12.688 20-19z"/><path style="opacity:1" fill="#c3dd2e" d="M265.5 287.5c-.838-.342-1.172-1.008-1-2 13.222-80.998 37.888-158.331 74-232 7.227-3.227 12.894-8.227 17-15a521.495 521.495 0 0 1 20.5 18c-24.948 39.862-47.948 81.196-69 124a734.106 734.106 0 0 0-41.5 107z"/><path style="opacity:1" fill="#c2dc2f" d="M261.5 228.5c-.993-8.484-1.326-17.151-1-26a3011.528 3011.528 0 0 0 2.5-83 378.488 378.488 0 0 0 7-25c.953-9.007 1.953-18.007 3-27 .703-5.238 2.87-9.738 6.5-13.5l20-10a2206.813 2206.813 0 0 0-38 184.5z"/><path style="opacity:1" fill="#98dd48" d="m254.5 212.5-2 21a2516.365 2516.365 0 0 0-36-185l1-2a140.522 140.522 0 0 0 14 7.5c3.63 3.762 5.797 8.262 6.5 13.5a326.712 326.712 0 0 0 4 32 99.576 99.576 0 0 1 7 25 1122.008 1122.008 0 0 1 3 37 7.293 7.293 0 0 0 2 3c.5 15.997.667 31.997.5 48z"/><path style="opacity:1" fill="#c2dc2f" d="M127.5 60.5c2.124.531 3.624 1.864 4.5 4 34.315 57.293 64.982 116.627 92 178a603.295 603.295 0 0 1 24 69 50.756 50.756 0 0 1 2 14c-32.067-79.854-75.067-152.854-129-219 1.519-4.268 2.353-8.768 2.5-13.5a93.926 93.926 0 0 1-1.5-24.5 22.146 22.146 0 0 1 5.5-8z"/><path style="opacity:1" fill="#98dd47" d="M265.5 315.5c-.667 0-1-.333-1-1a508.934 508.934 0 0 1 18.5-62c25.523-67.051 57.857-130.384 97-190 .837-1.507 2.004-2.007 3.5-1.5 2.635 1.96 4.469 4.46 5.5 7.5l-1 31a28.415 28.415 0 0 0 4.5 7.5c-54.361 61.835-96.694 131.335-127 208.5z"/><path style="opacity:1" fill="#99de47" d="M114.5 109.5c2.216.703 4.049 2.036 5.5 4 43.452 55.185 80.118 114.852 110 179 2.296 4.561 3.963 9.228 5 14a983.42 983.42 0 0 0-50-68A1922.916 1922.916 0 0 0 86.5 128a45.898 45.898 0 0 0 10-4c5.61-5.456 11.61-10.29 18-14.5z"/><path style="opacity:1" fill="#c3dd2e" d="M395.5 111.5c7.455 2.257 13.788 6.424 19 12.5a25.653 25.653 0 0 0 11 4c-46.945 43.925-89.112 91.758-126.5 143.5a558.576 558.576 0 0 0-24 38c-.667-1-.667-2 0-3 29.962-71.691 70.129-136.691 120.5-195z"/><path style="opacity:1" fill="#c3dc2e" d="M228.5 308.5c-49.885-62.257-109.885-112.257-180-150a435.502 435.502 0 0 0 14.5-24l6.5-6.5c2.53-1.422 5.197-1.755 8-1 50.58 51.892 97.414 106.725 140.5 164.5a250.595 250.595 0 0 1 10.5 17z"/><path style="opacity:1" fill="#99de47" d="M435.5 126.5c4.922.399 8.755 2.733 11.5 7a146.008 146.008 0 0 0 16.5 25.5C388.513 202.639 324.68 259.139 272 328.5c5.677-12.396 12.344-24.396 20-36 41.375-60.568 89.208-115.902 143.5-166z"/><path style="opacity:1" fill="#98dd47" d="M223.5 313.5c-37.864-40.373-81.531-72.873-131-97.5a345.82 345.82 0 0 0-50-18.5c2.697-2.75 4.03-6.084 4-10a186.314 186.314 0 0 0-5.5-18 24.939 24.939 0 0 1-.5-7 95.893 95.893 0 0 1 17 7.5c64.998 36.487 120.331 84.32 166 143.5z"/><path style="opacity:1" fill="#c2dc2e" d="M468.5 162.5c1.225.652 1.892 1.819 2 3.5l-.5 3.5a186.399 186.399 0 0 0-5.5 18c-.135 4.106 1.365 7.439 4.5 10 .483.948.649 1.948.5 3-29.421 9.044-57.088 21.877-83 38.5-36.408 23.721-69.908 51.221-100.5 82.5l-.5-1c51.327-64.36 112.327-117.026 183-158z"/><path style="opacity:1" fill="#c2dc2f" d="M231.5 332.5c-60.282-53.632-130.616-86.632-211-99 1.54-8.043 5.706-14.377 12.5-19a94.037 94.037 0 0 0 7-11c45.254 12.542 86.087 33.375 122.5 62.5 25.431 19.596 48.431 41.763 69 66.5z"/><path style="opacity:1" fill="#98de47" d="M469.5 205.5a4.934 4.934 0 0 1 3 .5c2.729 6.063 6.896 10.897 12.5 14.5 3.518 4.386 5.351 9.386 5.5 15-71.996 12.368-136.663 40.868-194 85.5-.667.667-1.333.667-2 0 40.734-41.404 87.067-75.071 139-101a487.143 487.143 0 0 1 36-14.5z"/><path style="opacity:1" fill="#75ac52" d="M254.5 212.5c.166 9.006 0 18.006-.5 27a10.098 10.098 0 0 1-1.5-6l2-21z"/><path style="opacity:1" fill="#587156" d="M260.5 202.5c-.326 8.849.007 17.516 1 26a10.098 10.098 0 0 1-1.5 6c-.825-10.841-.659-21.508.5-32z"/><path style="opacity:1" fill="#98dc48" d="M229.5 340.5c-42.133-33.127-89.799-54.627-143-64.5a605.883 605.883 0 0 0-66-7.5 32.412 32.412 0 0 1-1.5-6c-.5-7.659-.666-15.326-.5-23 73.112 10.568 138.112 39.068 195 85.5a117.26 117.26 0 0 1 16 15.5z"/><path style="opacity:1" fill="#c0da30" d="M293.5 331.5c57.835-48.072 124.168-78.072 199-90a118.58 118.58 0 0 1-2 28c-73.084-2.191-138.75 18.476-197 62z"/><path style="opacity:1" fill="#618f59" d="M265.5 240.5c-.172.992.162 1.658 1 2a762.941 762.941 0 0 0-3.5 17c-.017-6.547.817-12.88 2.5-19z"/><path style="opacity:1" fill="#8ba446" d="M251.5 267.5c1.621 5.104 2.121 10.437 1.5 16a584.662 584.662 0 0 1-2.5-15c.667 0 1-.333 1-1z"/><path style="opacity:1" fill="#87bd3b" d="M219.5 341.5c-54.17-33.461-113.17-49.628-177-48.5-8.547-3.382-14.547-9.215-18-17.5 65.505 1.338 125.839 19.505 181 54.5a78.218 78.218 0 0 1 14 11.5z"/><path style="opacity:1" fill="#86bc3c" d="M455.5 275.5c10.672-.167 21.339 0 32 .5-7.589 12.802-18.923 19.469-34 20l-48 1c-35.352 6.45-68.686 18.45-100 36-14.524 9.024-26.19 20.857-35 35.5-2.667 1.333-5.333 1.333-8 0 52.676-54.836 117.009-85.836 193-93z"/><path style="opacity:1" fill="#819a48" d="M264.5 285.5c-.172.992.162 1.658 1 2a42.47 42.47 0 0 1-1.5 5c-.796-2.539-.629-4.872.5-7z"/><path style="opacity:1" fill="#92ac41" d="M228.5 308.5c1.406.473 2.073 1.473 2 3-1.406-.473-2.073-1.473-2-3z"/><path style="opacity:1" fill="#78914b" d="M230.5 311.5c1.585.502 2.085 1.502 1.5 3-1.039-.744-1.539-1.744-1.5-3z"/><path style="opacity:1" fill="#58835a" d="M223.5 313.5c2.257 1.062 3.423 2.728 3.5 5-1.802-1.289-2.969-2.956-3.5-5z"/><path style="opacity:1" fill="#679856" d="M264.5 314.5c0 .667.333 1 1 1-.82 2.312-1.653 4.646-2.5 7-.433-2.919.067-5.586 1.5-8z"/><path style="opacity:1" fill="#7b924e" d="M293.5 331.5c-1.411 2.414-3.411 4.081-6 5 1.411-2.414 3.411-4.081 6-5z"/><path style="opacity:1" fill="#5e7655" d="M231.5 332.5a31.447 31.447 0 0 1 5 4.5c-2.686-.177-4.352-1.677-5-4.5z"/><path style="opacity:1" fill="#697f52" d="M287.5 336.5c-2.069 3.073-4.736 5.406-8 7 2.069-3.073 4.736-5.406 8-7z"/><path style="opacity:1" fill="#5e884f" d="M219.5 341.5c1.256-.039 2.256.461 3 1.5-1.498.585-2.498.085-3-1.5z"/><path style="opacity:1" fill="#629158" d="M229.5 340.5c4.271 2.601 7.937 5.934 11 10h-1c-3.667-3-7-6.333-10-10z"/><path style="opacity:1" fill="#46675b" d="M242.5 361.5c-.667 0-1 .333-1 1a209.449 209.449 0 0 0-12-12.5c4.988 2.805 9.322 6.638 13 11.5z"/><path style="opacity:1" fill="#4a615c" d="M279.5 343.5c-4.674 5.855-10.007 10.688-16 14.5 4.925-5.432 10.258-10.265 16-14.5z"/><path style="opacity:1" fill="#436760" d="M239.5 350.5h1c3.545 2.357 6.045 5.357 7.5 9a107.125 107.125 0 0 1-8.5-9z"/><path style="opacity:1" fill="#7cae41" d="M242.5 361.5a95.356 95.356 0 0 0 8 8.5c-1.333.667-2.667.667-4 0a94.4 94.4 0 0 1-5-7.5c0-.667.333-1 1-1z"/><path style="opacity:1" fill="#78bb42" d="M261.5 375.5a12.93 12.93 0 0 1 5 .5c-4.978 9.937-8.145 20.437-9.5 31.5a1366.642 1366.642 0 0 0 0 68c-3.405 1.61-4.905.444-4.5-3.5a744.29 744.29 0 0 0 1.5-78.5 138.9 138.9 0 0 0-4.5-16c4.139.55 8.139-.116 12-2z"/></svg>