<?xml version="1.0" encoding="UTF-8"?>
<!DOCTYPE svg PUBLIC "-//W3C//DTD SVG 1.1//EN" "http://www.w3.org/Graphics/SVG/1.1/DTD/svg11.dtd">
<svg xmlns="http://www.w3.org/2000/svg" version="1.1" width="300px" height="300px" style="shape-rendering:geometricPrecision; text-rendering:geometricPrecision; image-rendering:optimizeQuality; fill-rule:evenodd; clip-rule:evenodd" xmlns:xlink="http://www.w3.org/1999/xlink">
<g><path style="opacity:0.991" fill="#fefefe" d="M -0.5,166.5 C -0.5,155.167 -0.5,143.833 -0.5,132.5C 10.1857,68.3092 46.519,26.1426 108.5,6C 165.997,-7.16121 215.497,7.00546 257,48.5C 295.937,94.5287 305.604,146.195 286,203.5C 262.968,257.181 222.468,288.348 164.5,297C 111.136,301.445 66.969,283.612 32,243.5C 14.2403,220.711 3.40693,195.044 -0.5,166.5 Z"/></g>
<g><path style="opacity:1" fill="#050505" d="M 132.5,69.5 C 160.5,69.5 188.5,69.5 216.5,69.5C 216.667,97.1687 216.5,124.835 216,152.5C 212.333,163.5 208.667,174.5 205,185.5C 204.951,195.599 204.284,205.599 203,215.5C 185.883,220.071 168.716,224.571 151.5,229C 129.5,229.667 107.5,229.667 85.5,229C 81.9154,226.472 81.582,223.472 84.5,220C 104.497,219.5 124.497,219.333 144.5,219.5C 144.667,208.162 144.5,196.828 144,185.5C 140.333,174.5 136.667,163.5 133,152.5C 132.5,124.835 132.333,97.1687 132.5,69.5 Z"/></g>
<g><path style="opacity:1" fill="#fbfbfb" d="M 141.5,79.5 C 163.5,79.5 185.5,79.5 207.5,79.5C 207.5,101.167 207.5,122.833 207.5,144.5C 185.5,144.5 163.5,144.5 141.5,144.5C 141.5,122.833 141.5,101.167 141.5,79.5 Z"/></g>
<g><path style="opacity:1" fill="#242424" d="M 204.5,156.5 C 194.856,155.168 184.856,154.501 174.5,154.5C 164.144,154.501 154.144,155.168 144.5,156.5C 143.596,155.791 143.263,154.791 143.5,153.5C 164.167,153.5 184.833,153.5 205.5,153.5C 205.737,154.791 205.404,155.791 204.5,156.5 Z"/></g>
<g><path style="opacity:1" fill="#fbfbfb" d="M 204.5,156.5 C 201.23,164.976 198.564,173.643 196.5,182.5C 181.833,182.5 167.167,182.5 152.5,182.5C 150.436,173.643 147.77,164.976 144.5,156.5C 154.144,155.168 164.144,154.501 174.5,154.5C 184.856,154.501 194.856,155.168 204.5,156.5 Z"/></g>
<g><path style="opacity:1" fill="#fafafa" d="M 154.5,191.5 C 167.833,191.5 181.167,191.5 194.5,191.5C 194.5,197.167 194.5,202.833 194.5,208.5C 181.167,211.5 167.833,214.5 154.5,217.5C 154.5,208.833 154.5,200.167 154.5,191.5 Z"/></g>
</svg>
