<?xml version="1.0" encoding="UTF-8"?>
<!DOCTYPE svg PUBLIC "-//W3C//DTD SVG 1.1//EN" "http://www.w3.org/Graphics/SVG/1.1/DTD/svg11.dtd">
<svg xmlns="http://www.w3.org/2000/svg" version="1.1" width="839px" height="838px" style="shape-rendering:geometricPrecision; text-rendering:geometricPrecision; image-rendering:optimizeQuality; fill-rule:evenodd; clip-rule:evenodd" xmlns:xlink="http://www.w3.org/1999/xlink">
<g><path style="opacity:1" fill="#fefefe" d="M -0.5,-0.5 C 279.167,-0.5 558.833,-0.5 838.5,-0.5C 838.5,278.833 838.5,558.167 838.5,837.5C 558.833,837.5 279.167,837.5 -0.5,837.5C -0.5,558.167 -0.5,278.833 -0.5,-0.5 Z"/></g>
<g><path style="opacity:1" fill="#070707" d="M 600.5,92.5 C 601.139,93.0968 601.472,93.9302 601.5,95C 598.987,116.423 597.32,137.923 596.5,159.5C 595.931,167.458 597.098,175.124 600,182.5C 600.667,190.5 600.667,198.5 600,206.5C 597.102,212.787 594.935,219.287 593.5,226C 593.667,227.5 593.833,229 594,230.5C 597.71,237.253 600.876,244.253 603.5,251.5C 600.681,259.634 598.014,267.8 595.5,276C 598.147,283.459 600.647,290.959 603,298.5C 603.333,312.833 603.667,327.167 604,341.5C 608.835,369.681 614.501,397.681 621,425.5C 623.845,456.774 628.512,487.774 635,518.5C 636.378,530.538 632.544,540.538 623.5,548.5C 623.167,548.333 622.833,548.167 622.5,548C 626.427,539.605 627.927,530.772 627,521.5C 619.942,489.483 614.942,457.15 612,424.5C 605.688,395.962 600.021,367.295 595,338.5C 595.066,325.835 595.066,313.168 595,300.5C 593.517,293.864 591.183,287.531 588,281.5C 587.339,276.442 587.672,271.442 589,266.5C 591.029,261.608 593.196,256.774 595.5,252C 593.136,246.772 590.636,241.606 588,236.5C 585.753,231.363 585.086,226.03 586,220.5C 592.273,208.251 594.273,195.251 592,181.5C 590.156,176.159 589.323,170.659 589.5,165C 590.323,141.964 592.823,119.13 597,96.5C 598.102,95.051 599.269,93.7177 600.5,92.5 Z"/></g>
<g><path style="opacity:1" fill="#060606" d="M 439.5,89.5 C 467.873,90.5505 496.206,92.2171 524.5,94.5C 544.511,93.2213 564.511,92.0547 584.5,91C 576.614,96.1414 567.948,99.1414 558.5,100C 547.387,101.547 536.22,102.38 525,102.5C 502.025,100.593 479.025,98.9266 456,97.5C 431.483,98.3626 406.983,99.5293 382.5,101C 341.524,106.995 300.858,114.662 260.5,124C 247.118,124.156 233.785,124.989 220.5,126.5C 217.13,126.626 213.963,125.96 211,124.5C 215.551,170.717 219.218,217.05 222,263.5C 227.136,303.741 231.47,344.074 235,384.5C 237.505,429.887 240.671,475.22 244.5,520.5C 252.71,521.508 260.877,522.842 269,524.5C 283.779,522.266 298.612,520.432 313.5,519C 334.603,514.808 355.603,510.141 376.5,505C 389.89,504.163 403.224,502.83 416.5,501C 447.27,492.351 478.603,489.351 510.5,492C 524.968,493.797 539.468,495.297 554,496.5C 562.51,494.916 571.01,493.082 579.5,491C 585.833,490.333 592.167,490.333 598.5,491C 585.865,494.545 573.532,498.878 561.5,504C 556.167,504.667 550.833,504.667 545.5,504C 514.952,499.356 484.285,498.356 453.5,501C 440.833,503.667 428.167,506.333 415.5,509C 404.246,510.863 392.913,511.863 381.5,512C 357.629,517.641 333.629,522.641 309.5,527C 296.489,528.042 283.489,529.209 270.5,530.5C 262.229,528.446 253.896,526.779 245.5,525.5C 246.388,532.541 247.221,539.541 248,546.5C 247.667,545.5 247.333,544.5 247,543.5C 246.895,556.247 245.895,568.914 244,581.5C 243.474,584.272 242.641,586.938 241.5,589.5C 235.395,519.241 230.229,448.908 226,378.5C 220.633,327.201 215.633,275.868 211,224.5C 210.257,189.042 208.257,153.708 205,118.5C 208.35,115.793 210.017,116.793 210,121.5C 224.001,120.656 238.168,119.823 252.5,119C 289.634,110.44 326.968,102.773 364.5,96C 389.631,93.6204 414.631,91.4537 439.5,89.5 Z"/></g>
<g><path style="opacity:1" fill="#111111" d="M 529.5,146.5 C 534.389,146.59 534.723,147.756 530.5,150C 524.248,151.517 517.914,152.517 511.5,153C 501.791,153.176 492.124,153.842 482.5,155C 473.576,157.965 464.576,160.631 455.5,163C 444.78,163.313 434.113,162.979 423.5,162C 413.269,166.866 402.769,171.033 392,174.5C 387.844,173.339 384.011,171.505 380.5,169C 376.833,168.333 373.167,168.333 369.5,169C 360.167,171.667 350.833,174.333 341.5,177C 329.561,181.97 317.894,187.47 306.5,193.5C 305.304,193.154 305.304,192.654 306.5,192C 309.772,190.392 312.772,188.392 315.5,186C 314.228,184.954 312.728,184.454 311,184.5C 307.348,185.172 303.848,186.005 300.5,187C 306.278,181.855 312.278,181.355 318.5,185.5C 337.961,173.845 358.961,167.345 381.5,166C 384.893,168.363 388.56,170.196 392.5,171.5C 402.61,167.612 412.61,163.446 422.5,159C 433.152,159.552 443.819,159.885 454.5,160C 465.397,156.589 476.397,153.589 487.5,151C 498.825,150.193 510.158,149.527 521.5,149C 524.379,148.454 527.046,147.621 529.5,146.5 Z"/></g>
<g><path style="opacity:1" fill="#131313" d="M 505.5,230.5 C 512.175,230.334 518.842,230.5 525.5,231C 531.035,231.359 536.368,232.359 541.5,234C 533.496,234.433 525.496,234.267 517.5,233.5C 507.76,233.343 498.426,235.176 489.5,239C 478.167,245 466.833,251 455.5,257C 448.061,260.556 440.394,261.222 432.5,259C 424.5,254 416.5,249 408.5,244C 404.167,243.333 399.833,243.333 395.5,244C 381.663,251.173 368.33,259.173 355.5,268C 348.184,272.159 340.517,275.492 332.5,278C 329.833,278.667 327.167,278.667 324.5,278C 323.299,277.097 322.465,275.931 322,274.5C 322.089,269.062 322.922,263.728 324.5,258.5C 315.81,258.674 307.81,261.174 300.5,266C 286.901,273.938 273.567,282.271 260.5,291C 254.381,294.726 248.048,297.893 241.5,300.5C 241.5,299.167 241.5,297.833 241.5,296.5C 244.425,296.54 247.091,295.707 249.5,294C 262.167,286 274.833,278 287.5,270C 296.383,264.455 305.716,259.789 315.5,256C 319.423,255.207 323.256,255.374 327,256.5C 326.417,262.782 325.917,269.115 325.5,275.5C 331.445,275.131 337.112,273.631 342.5,271C 359.167,261.333 375.833,251.667 392.5,242C 398.097,240.544 403.763,240.211 409.5,241C 416.436,244.94 423.103,249.273 429.5,254C 437.777,258.53 446.11,258.53 454.5,254C 465.833,248 477.167,242 488.5,236C 494.227,233.993 499.893,232.159 505.5,230.5 Z"/></g>
<g><path style="opacity:1" fill="#111111" d="M 531.5,306.5 C 533.288,306.215 534.955,306.548 536.5,307.5C 523.189,315.492 509.522,322.992 495.5,330C 491.887,330.884 488.22,331.384 484.5,331.5C 471.837,329.315 459.17,329.148 446.5,331C 430.501,336.167 414.835,342.167 399.5,349C 391.499,352.534 383.166,353.868 374.5,353C 368.329,351.415 363.329,348.082 359.5,343C 356.5,342.333 353.5,342.333 350.5,343C 345.167,345 339.833,347 334.5,349C 321.167,356.333 307.833,363.667 294.5,371C 290.157,373.44 285.657,373.94 281,372.5C 280.333,371.167 280.333,369.833 281,368.5C 281.408,370.41 282.575,371.41 284.5,371.5C 287.197,370.768 289.864,369.934 292.5,369C 304.329,362.586 315.996,355.92 327.5,349C 334.753,345.805 342.086,342.805 349.5,340C 357.921,338.208 364.588,340.875 369.5,348C 379.374,351.387 389.04,350.721 398.5,346C 418.098,336.356 438.598,329.523 460,325.5C 470.462,327.019 480.962,327.519 491.5,327C 494.833,325.667 498.167,324.333 501.5,323C 511.112,316.696 521.112,311.196 531.5,306.5 Z"/></g>
<g><path style="opacity:1" fill="#101010" d="M 552.5,399.5 C 554.028,399.517 554.528,400.184 554,401.5C 551.973,403.772 549.806,405.939 547.5,408C 538.897,413.135 529.897,417.468 520.5,421C 515.777,421.624 511.11,421.29 506.5,420C 495.003,413.375 482.67,410.709 469.5,412C 453.056,417.482 436.389,422.148 419.5,426C 407.871,424.742 396.204,423.742 384.5,423C 379.757,424.47 375.091,426.136 370.5,428C 357.802,434.682 345.135,441.348 332.5,448C 327.167,449.69 323.167,448.19 320.5,443.5C 320.833,443.167 321.167,442.833 321.5,442.5C 322.834,444.417 324.667,445.417 327,445.5C 330.891,444.536 334.725,443.37 338.5,442C 352.548,432.81 367.548,425.476 383.5,420C 395.546,420.611 407.546,421.611 419.5,423C 434.459,419.681 449.126,415.347 463.5,410C 479.39,406.593 494.39,408.926 508.5,417C 512.5,417.667 516.5,417.667 520.5,417C 530.32,412.59 539.986,407.923 549.5,403C 550.71,401.961 551.71,400.794 552.5,399.5 Z"/></g>
<g><path style="opacity:1" fill="#080808" d="M 621.5,586.5 C 622.873,586.343 624.207,586.51 625.5,587C 626.77,590.203 628.77,592.87 631.5,595C 630.262,594.923 629.262,595.089 628.5,595.5C 631,598.5 633.5,601.5 636,604.5C 638.814,609.006 639.147,613.673 637,618.5C 632.256,623.75 627.089,628.417 621.5,632.5C 625.428,634.082 629.261,635.749 633,637.5C 633.667,639.167 633.667,640.833 633,642.5C 631.039,644.928 629.206,647.428 627.5,650C 630.785,654.731 633.952,659.565 637,664.5C 640.746,674.613 641.413,684.946 639,695.5C 636.448,705.159 633.115,714.493 629,723.5C 630.591,714.293 631.924,704.959 633,695.5C 634.193,686.249 633.193,677.249 630,668.5C 626.915,663.328 623.581,658.328 620,653.5C 618.703,648.883 619.87,645.05 623.5,642C 619.659,641.124 615.993,639.791 612.5,638C 609.476,635.525 608.81,632.525 610.5,629C 617.894,625.259 624.394,620.426 630,614.5C 630.667,612.833 630.667,611.167 630,609.5C 625.99,605.48 622.99,600.813 621,595.5C 620.264,592.408 620.431,589.408 621.5,586.5 Z"/></g>
<g><path style="opacity:1" fill="#070707" d="M 252.5,605.5 C 254.39,605.297 255.89,605.963 257,607.5C 261.547,615.927 265.547,624.594 269,633.5C 269.741,636.562 269.575,639.562 268.5,642.5C 265.82,645.682 262.487,647.848 258.5,649C 260.329,649.273 261.829,650.107 263,651.5C 265.988,657.827 268.988,664.16 272,670.5C 273.449,691.157 274.782,711.824 276,732.5C 276.876,736.585 278.042,740.585 279.5,744.5C 278.833,745.833 278.167,745.833 277.5,744.5C 271.333,735.504 267.833,725.504 267,714.5C 265.724,700.186 264.724,685.852 264,671.5C 260.822,666.827 258.322,661.827 256.5,656.5C 250.445,656.662 244.445,656.162 238.5,655C 235.64,651.97 235.973,649.303 239.5,647C 248.163,645.785 255.829,642.452 262.5,637C 258.046,626.806 254.712,616.306 252.5,605.5 Z"/></g>
</svg>
