<?xml version="1.0" encoding="UTF-8"?>
<!DOCTYPE svg PUBLIC "-//W3C//DTD SVG 1.1//EN" "http://www.w3.org/Graphics/SVG/1.1/DTD/svg11.dtd">
<svg xmlns="http://www.w3.org/2000/svg" version="1.1" width="300px" height="300px" style="shape-rendering:geometricPrecision; text-rendering:geometricPrecision; image-rendering:optimizeQuality; fill-rule:evenodd; clip-rule:evenodd" xmlns:xlink="http://www.w3.org/1999/xlink">
<g><path style="opacity:0.99" fill="#fefffe" d="M -0.5,166.5 C -0.5,155.167 -0.5,143.833 -0.5,132.5C 10.1857,68.3092 46.519,26.1426 108.5,6C 165.997,-7.16121 215.497,7.00546 257,48.5C 295.937,94.5287 305.604,146.195 286,203.5C 262.968,257.181 222.468,288.348 164.5,297C 111.136,301.445 66.969,283.612 32,243.5C 14.2403,220.711 3.40693,195.044 -0.5,166.5 Z"/></g>
<g><path style="opacity:1" fill="#050505" d="M 159.5,67.5 C 183.762,90.0948 207.429,113.428 230.5,137.5C 203.68,164.82 176.68,191.986 149.5,219C 176.167,219.333 202.833,219.667 229.5,220C 234.329,222.837 234.663,226.171 230.5,230C 197.833,230.667 165.167,230.667 132.5,230C 109.986,207.653 87.6528,185.153 65.5,162.5C 96.8544,130.812 128.188,99.1458 159.5,67.5 Z"/></g>
<g><path style="opacity:1" fill="#fdfdfd" d="M 159.5,82.5 C 178.762,100.094 197.429,118.427 215.5,137.5C 198.167,155.5 180.5,173.167 162.5,190.5C 143.833,172.5 125.5,154.167 107.5,135.5C 124.855,117.813 142.188,100.146 159.5,82.5 Z"/></g>
<g><path style="opacity:1" fill="#fdfdfd" d="M 98.5,143.5 C 117.415,160.913 135.915,178.913 154,197.5C 154.667,198.167 154.667,198.833 154,199.5C 148.167,205.333 142.333,211.167 136.5,217C 135.833,217.667 135.167,217.667 134.5,217C 116.667,199.167 98.8333,181.333 81,163.5C 80.3333,162.833 80.3333,162.167 81,161.5C 87.0362,155.631 92.8695,149.631 98.5,143.5 Z"/></g>
</svg>
