<?xml version="1.0" encoding="UTF-8"?>
<!DOCTYPE svg PUBLIC "-//W3C//DTD SVG 1.1//EN" "http://www.w3.org/Graphics/SVG/1.1/DTD/svg11.dtd">
<svg xmlns="http://www.w3.org/2000/svg" version="1.1" width="300px" height="300px" style="shape-rendering:geometricPrecision; text-rendering:geometricPrecision; image-rendering:optimizeQuality; fill-rule:evenodd; clip-rule:evenodd" xmlns:xlink="http://www.w3.org/1999/xlink">
<g><path style="opacity:0.991" fill="#fefefe" d="M -0.5,166.5 C -0.5,155.167 -0.5,143.833 -0.5,132.5C 10.1857,68.3092 46.519,26.1426 108.5,6C 165.997,-7.16121 215.497,7.00546 257,48.5C 295.937,94.5287 305.604,146.195 286,203.5C 262.968,257.181 222.468,288.348 164.5,297C 111.136,301.445 66.969,283.612 32,243.5C 14.2403,220.711 3.40693,195.044 -0.5,166.5 Z"/></g>
<g><path style="opacity:1" fill="#080808" d="M 122.5,63.5 C 141.17,63.3334 159.836,63.5001 178.5,64C 180.333,64.5 181.5,65.6667 182,67.5C 182.667,104.833 182.667,142.167 182,179.5C 172.357,197.953 162.857,216.453 153.5,235C 133.5,235.667 113.5,235.667 93.5,235C 90.5948,231.626 90.9281,228.626 94.5,226C 110.5,225.667 126.5,225.333 142.5,225C 134.539,209.578 126.706,194.078 119,178.5C 118.333,141.5 118.333,104.5 119,67.5C 120.376,66.2949 121.542,64.9616 122.5,63.5 Z"/></g>
<g><path style="opacity:1" fill="#fbfbfb" d="M 128.5,73.5 C 143.5,73.5 158.5,73.5 173.5,73.5C 173.5,106.167 173.5,138.833 173.5,171.5C 158.5,171.5 143.5,171.5 128.5,171.5C 128.5,138.833 128.5,106.167 128.5,73.5 Z"/></g>
<g><path style="opacity:1" fill="#fafafa" d="M 131.5,182.5 C 144.006,181.175 156.673,181.175 169.5,182.5C 163.422,194.99 157.089,207.323 150.5,219.5C 144.397,206.958 138.063,194.625 131.5,182.5 Z"/></g>
</svg>
